<svg xmlns="http://www.w3.org/2000/svg" xmlns:xlink="http://www.w3.org/1999/xlink" width="500" zoomAndPan="magnify" viewBox="0 0 375 374.999991" height="500" preserveAspectRatio="xMidYMid meet" version="1.0"><defs><g/><clipPath id="9affb57045"><path d="M 145 75 L 210.875 75 L 210.875 126 L 145 126 Z M 145 75 " clip-rule="nonzero"/></clipPath><clipPath id="c20a191cd6"><path d="M 133 57.953125 L 140 57.953125 L 140 252.953125 L 133 252.953125 Z M 133 57.953125 " clip-rule="nonzero"/></clipPath><clipPath id="fb8a838be8"><path d="M 58.625 75 L 130 75 L 130 236 L 58.625 236 Z M 58.625 75 " clip-rule="nonzero"/></clipPath><clipPath id="89e74b6435"><path d="M 194.789062 74.359375 L 309.539062 74.359375 L 309.539062 232.609375 L 194.789062 232.609375 Z M 194.789062 74.359375 " clip-rule="nonzero"/></clipPath><clipPath id="92252ecc7a"><path d="M 128 20.851562 L 142 20.851562 L 142 49 L 128 49 Z M 128 20.851562 " clip-rule="nonzero"/></clipPath><clipPath id="1285a61f5d"><path d="M 111.253906 43 L 158.503906 43 L 158.503906 53.851562 L 111.253906 53.851562 Z M 111.253906 43 " clip-rule="nonzero"/></clipPath><clipPath id="37da4c954e"><path d="M 135.574219 139.121094 L 136.324219 139.121094 L 136.324219 289.871094 L 135.574219 289.871094 Z M 135.574219 139.121094 " clip-rule="nonzero"/></clipPath><clipPath id="57d6a9314f"><path d="M 134.824219 139.417969 L 134.824219 289.484375 C 134.824219 290.0625 135.292969 290.527344 135.871094 290.527344 C 136.449219 290.527344 136.917969 290.0625 136.917969 289.484375 L 136.917969 139.417969 C 136.917969 138.839844 136.449219 138.371094 135.871094 138.371094 C 135.292969 138.371094 134.824219 138.839844 134.824219 139.417969 Z M 134.824219 139.417969 " clip-rule="nonzero"/></clipPath><clipPath id="e2cd5909f0"><path d="M 135.871094 139.273438 C 135.953125 139.273438 136.015625 139.339844 136.015625 139.417969 L 136.015625 289.484375 C 136.015625 289.5625 135.953125 289.628906 135.871094 289.628906 C 135.789062 289.628906 135.726562 289.5625 135.726562 289.484375 L 135.726562 139.417969 C 135.726562 139.339844 135.789062 139.273438 135.871094 139.273438 Z M 135.871094 139.273438 " clip-rule="nonzero"/></clipPath><clipPath id="048202dac3"><path d="M 134.824219 138.371094 L 137 138.371094 L 137 290.621094 L 134.824219 290.621094 Z M 134.824219 138.371094 " clip-rule="nonzero"/></clipPath><clipPath id="44d97ac3e6"><path d="M 134.824219 139.417969 L 134.824219 289.484375 C 134.824219 290.0625 135.292969 290.527344 135.871094 290.527344 C 136.449219 290.527344 136.917969 290.0625 136.917969 289.484375 L 136.917969 139.417969 C 136.917969 138.839844 136.449219 138.371094 135.871094 138.371094 C 135.292969 138.371094 134.824219 138.839844 134.824219 139.417969 Z M 134.824219 139.417969 " clip-rule="nonzero"/></clipPath><clipPath id="c4ac8d9573"><path d="M 134.824219 139.417969 L 134.824219 289.574219 C 134.824219 290.152344 135.328125 290.621094 135.949219 290.621094 C 136.570312 290.621094 137.074219 290.152344 137.074219 289.574219 L 137.074219 139.417969 C 137.074219 138.839844 136.570312 138.371094 135.949219 138.371094 C 135.328125 138.371094 134.824219 138.839844 134.824219 139.417969 Z M 134.824219 139.417969 " clip-rule="nonzero"/></clipPath></defs><path fill="#ffffff" d="M 145.949219 146.128906 L 145.949219 172.289062 C 162.546875 174.515625 176.152344 178.511719 176.152344 190.8125 C 176.152344 201.824219 166.351562 210.542969 145.949219 210.839844 L 145.949219 235.628906 C 173.71875 235.351562 204.1875 222.625 204.1875 191.675781 C 204.1875 158.242188 176.375 149.859375 145.949219 146.128906 Z M 145.949219 146.128906 " fill-opacity="1" fill-rule="nonzero"/><g clip-path="url(#9affb57045)"><path fill="#ffffff" d="M 145.949219 101.195312 C 163.804688 101.527344 180.621094 108.894531 187.148438 125.097656 L 210.875 112.816406 C 199.761719 85.492188 176.371094 75.9375 145.949219 75.761719 Z M 145.949219 101.195312 " fill-opacity="1" fill-rule="nonzero"/></g><g clip-path="url(#c20a191cd6)"><path fill="#ffffff" d="M 139.679688 252.9375 L 133.40625 252.9375 L 133.40625 57.972656 L 139.679688 57.972656 Z M 139.679688 252.9375 " fill-opacity="1" fill-rule="nonzero"/></g><g clip-path="url(#fb8a838be8)"><path fill="#ffde59" d="M 88.644531 235.320312 L 88.644531 167.8125 L 129.039062 167.8125 L 129.039062 139.894531 L 88.644531 139.894531 L 88.644531 75.136719 L 58.636719 75.136719 L 58.636719 235.320312 Z M 88.644531 235.320312 " fill-opacity="1" fill-rule="nonzero"/></g><g clip-path="url(#89e74b6435)"><path fill="#38b6ff" d="M 194.789062 74.363281 L 309.539062 74.363281 L 309.539062 110.140625 L 230.488281 110.140625 L 230.488281 132.648438 L 295.316406 132.648438 L 295.316406 168.425781 L 230.488281 168.425781 L 230.488281 196.828125 L 309.539062 196.828125 L 309.539062 232.605469 L 194.789062 232.605469 L 194.789062 190.472656 L 230.488281 168.425781 L 230.488281 132.648438 L 194.789062 154.925781 Z M 194.789062 74.363281 " fill-opacity="1" fill-rule="evenodd"/></g><path fill="#fcad01" d="M 133.4375 22.574219 C 130.722656 23.078125 124.042969 25.003906 117.945312 32.210938 C 113.753906 37.171875 114.636719 46.03125 114.636719 46.03125 C 114.636719 46.03125 118.886719 47.90625 123.425781 48.574219 C 127.210938 49.132812 132.980469 48.417969 134.808594 48.164062 C 136.648438 48.316406 142.449219 48.699219 146.199219 47.929688 C 150.691406 47.003906 154.824219 44.890625 154.824219 44.890625 C 154.824219 44.890625 155.195312 35.996094 150.71875 31.28125 C 144.214844 24.429688 137.433594 22.886719 134.695312 22.539062 C 134.273438 22.496094 133.855469 22.507812 133.4375 22.574219 Z M 133.4375 22.574219 " fill-opacity="1" fill-rule="evenodd"/><path fill="#e28926" d="M 130.851562 23.238281 C 130.050781 23.5 129.265625 23.800781 128.496094 24.140625 C 128.75 24.914062 128.945312 25.617188 128.980469 26.042969 C 129.105469 27.476562 127.722656 46.539062 127.488281 46.742188 C 127.25 46.949219 123.945312 47.132812 123.375 46.910156 C 122.871094 46.714844 116.296875 44.363281 114.558594 43.742188 C 114.546875 45.128906 114.636719 46.03125 114.636719 46.03125 C 114.636719 46.03125 118.886719 47.90625 123.425781 48.574219 C 125.308594 48.851562 127.683594 48.816406 129.816406 48.675781 C 129.839844 48.492188 129.859375 48.273438 129.882812 48.007812 L 128.640625 48.054688 C 128.640625 48.054688 130.058594 29.390625 130.851562 23.238281 Z M 137.5 23.105469 C 138.523438 29.269531 141.125 47.585938 141.125 47.585938 L 139.910156 47.632812 C 139.949219 47.941406 139.988281 48.1875 140.027344 48.394531 C 142.113281 48.402344 144.390625 48.300781 146.199219 47.929688 C 150.691406 47.003906 154.824219 44.890625 154.824219 44.890625 C 154.824219 44.890625 154.863281 44.019531 154.773438 42.679688 C 152.863281 43.488281 146.832031 46.039062 146.355469 46.257812 C 145.796875 46.511719 142.484375 46.519531 142.238281 46.324219 C 141.992188 46.132812 139.507812 27.183594 139.546875 25.746094 C 139.558594 25.332031 139.703125 24.648438 139.902344 23.890625 C 139.113281 23.589844 138.3125 23.324219 137.5 23.105469 Z M 141.691406 24.65625 C 142.09375 27.257812 143.226562 37.050781 143.527344 37.152344 C 143.777344 37.238281 143.945312 29.710938 143.976562 25.863281 C 143.191406 25.402344 142.425781 25 141.691406 24.65625 Z M 126.539062 25.105469 C 125.824219 25.492188 125.085938 25.9375 124.332031 26.445312 C 124.585938 30.289062 125.183594 37.765625 125.433594 37.664062 C 125.726562 37.546875 126.289062 27.753906 126.539062 25.105469 Z M 121.277344 28.804688 C 120.585938 29.414062 119.894531 30.082031 119.203125 30.808594 C 119.601562 33.433594 120.203125 37.722656 120.449219 37.808594 C 120.757812 37.910156 121.277344 30.46875 121.277344 28.804688 Z M 147.253906 28.117188 C 147.367188 29.875 148.300781 37.128906 148.601562 37.007812 C 148.839844 36.910156 149.1875 32.648438 149.433594 30 C 148.707031 29.3125 147.976562 28.6875 147.253906 28.117188 Z M 147.253906 28.117188 " fill-opacity="1" fill-rule="evenodd"/><g clip-path="url(#92252ecc7a)"><path fill="#fcad01" d="M 128.640625 48.054688 C 128.640625 48.054688 130.664062 21.417969 131.230469 21.289062 C 131.796875 21.160156 136.808594 20.851562 137.101562 21.066406 C 137.394531 21.285156 141.125 47.585938 141.125 47.585938 Z M 128.640625 48.054688 " fill-opacity="1" fill-rule="evenodd"/></g><path fill="#e28926" d="M 126.8125 48.558594 C 128.074219 48.882812 142.585938 48.269531 142.699219 48.109375 C 142.816406 47.945312 142.851562 46.386719 142.691406 46.390625 C 142.53125 46.398438 127.53125 46.863281 127.53125 46.863281 Z M 126.8125 48.558594 " fill-opacity="1" fill-rule="evenodd"/><g clip-path="url(#1285a61f5d)"><path fill="#fcad01" d="M 114.683594 44.953125 C 114.363281 45.042969 111.339844 46.445312 111.308594 46.84375 C 111.28125 47.242188 111.277344 51.351562 111.449219 51.707031 C 111.621094 52.0625 114.289062 50.828125 115.019531 50.929688 C 115.75 51.027344 121.425781 53.339844 122.925781 53.617188 C 124.203125 53.851562 132.269531 53.546875 134.960938 53.34375 C 137.65625 53.394531 145.726562 53.242188 146.988281 52.933594 C 148.472656 52.574219 154.003906 49.941406 154.726562 49.800781 C 155.449219 49.660156 158.183594 50.742188 158.335938 50.378906 C 158.484375 50.015625 158.246094 45.910156 158.195312 45.515625 C 158.140625 45.117188 155.039062 43.886719 154.714844 43.816406 C 154.390625 43.746094 147.421875 46.976562 145.933594 47.21875 C 141.492188 47.566406 131.214844 47.636719 123.644531 47.851562 C 122.148438 47.695312 115.003906 44.863281 114.683594 44.953125 Z M 114.683594 44.953125 " fill-opacity="1" fill-rule="evenodd"/></g><path fill="#fcad01" d="M 148.527344 37.050781 C 148.527344 37.050781 148.460938 27.828125 148.222656 27.4375 C 147.980469 27.050781 144.054688 24.453125 143.484375 24.441406 C 142.910156 24.429688 143.582031 37.109375 143.582031 37.109375 Z M 148.527344 37.050781 " fill-opacity="1" fill-rule="evenodd"/><path fill="#fcad01" d="M 120.46875 37.847656 C 120.46875 37.847656 120 28.632812 120.21875 28.234375 C 120.433594 27.832031 124.203125 25.015625 124.773438 24.972656 C 125.34375 24.929688 125.40625 37.625 125.40625 37.625 Z M 120.46875 37.847656 " fill-opacity="1" fill-rule="evenodd"/><g clip-path="url(#37da4c954e)"><g clip-path="url(#57d6a9314f)"><g clip-path="url(#e2cd5909f0)"><path stroke-linecap="butt" transform="matrix(0.375, 0, 0, 0.34787, 42.254356, 127.530445)" fill="none" stroke-linejoin="miter" d="M 249.998778 31.196578 L 249.998778 468.803371 " stroke="#231f20" stroke-width="6" stroke-opacity="1" stroke-miterlimit="10"/></g></g></g><g clip-path="url(#048202dac3)"><g clip-path="url(#44d97ac3e6)"><g clip-path="url(#c4ac8d9573)"><path stroke-linecap="butt" transform="matrix(0.808989, 0, 0, 0.750462, 134.824683, 138.372589)" fill="none" stroke-linejoin="miter" d="M -0.000573675 1.392982 L -0.000573675 201.478044 C -0.000573675 202.248403 0.62231 202.873018 1.390051 202.873018 C 2.157792 202.873018 2.780676 202.248403 2.780676 201.478044 L 2.780676 1.392982 C 2.780676 0.622623 2.157792 -0.00199179 1.390051 -0.00199179 C 0.62231 -0.00199179 -0.000573675 0.622623 -0.000573675 1.392982 Z M -0.000573675 1.392982 " stroke="#ffffff" stroke-width="30" stroke-opacity="1" stroke-miterlimit="4"/></g></g></g><g fill="#ffde59" fill-opacity="1"><g transform="translate(61.120239, 271.842526)"><g/></g></g><g fill="#ffde59" fill-opacity="1"><g transform="translate(66.391925, 271.842526)"><g><path d="M 4.167969 0 L 4.167969 -6.25 L 10.59375 -6.25 L 10.59375 0 L 13.421875 0 L 13.421875 -14.992188 L 10.59375 -14.992188 L 10.59375 -8.785156 L 4.167969 -8.785156 L 4.167969 -14.992188 L 1.335938 -14.992188 L 1.335938 0 Z M 4.167969 0 "/></g></g></g><g fill="#ffde59" fill-opacity="1"><g transform="translate(81.166741, 271.842526)"><g><path d="M 6.367188 0.214844 C 9.316406 0.214844 11.003906 -1.570312 11.652344 -3.714844 L 8.941406 -3.714844 C 8.585938 -2.808594 7.722656 -2.0625 6.464844 -2.0625 C 5.324219 -2.0625 4.421875 -2.652344 3.910156 -3.675781 C 3.714844 -4.007812 3.539062 -4.5 3.496094 -4.972656 L 11.828125 -4.972656 L 11.828125 -5.542969 C 11.828125 -9.53125 9.136719 -11.261719 6.289062 -11.261719 C 2.515625 -11.261719 0.746094 -8.332031 0.746094 -5.441406 C 0.746094 -2.179688 2.988281 0.214844 6.367188 0.214844 Z M 3.617188 -6.957031 C 3.65625 -7.25 3.753906 -7.625 4.046875 -7.976562 C 4.558594 -8.765625 5.382812 -9.15625 6.367188 -9.15625 C 7.328125 -9.15625 8.195312 -8.765625 8.707031 -7.976562 C 8.980469 -7.644531 9.078125 -7.25 9.117188 -6.957031 Z M 3.617188 -6.957031 "/></g></g></g><g fill="#ffde59" fill-opacity="1"><g transform="translate(93.74105, 271.842526)"><g><path d="M 4.382812 0.214844 C 5.324219 0.214844 6.191406 0.0585938 6.878906 -0.394531 C 7.289062 -0.648438 7.605469 -1.003906 7.878906 -1.492188 L 7.878906 0 L 10.53125 0 L 10.53125 -5.738281 C 10.53125 -7.269531 10.53125 -9 9.234375 -10.140625 C 8.410156 -10.90625 7.171875 -11.261719 5.894531 -11.261719 C 3.714844 -11.261719 1.570312 -10.082031 1.179688 -7.507812 L 3.8125 -7.507812 C 4.007812 -8.546875 4.875 -9.175781 5.875 -9.175781 C 6.503906 -9.175781 7.015625 -9 7.347656 -8.644531 C 7.683594 -8.292969 7.859375 -7.761719 7.878906 -7.09375 L 4.597656 -6.484375 C 3.675781 -6.308594 2.730469 -6.03125 2.023438 -5.542969 C 1.257812 -5.011719 0.765625 -4.207031 0.765625 -3.027344 C 0.765625 -0.921875 2.300781 0.214844 4.382812 0.214844 Z M 5.03125 -1.867188 C 4.105469 -1.867188 3.417969 -2.300781 3.417969 -3.125 C 3.417969 -3.496094 3.558594 -3.773438 3.773438 -3.988281 C 4.085938 -4.285156 4.539062 -4.480469 5.304688 -4.617188 L 7.9375 -5.148438 C 7.898438 -3.695312 7.605469 -2.75 6.445312 -2.179688 C 6.011719 -1.964844 5.523438 -1.867188 5.03125 -1.867188 Z M 5.03125 -1.867188 "/></g></g></g><g fill="#ffde59" fill-opacity="1"><g transform="translate(105.352641, 271.842526)"><g><path d="M 5.421875 0 L 5.421875 -2.199219 L 4.714844 -2.199219 C 4.066406 -2.199219 3.8125 -2.457031 3.8125 -3.203125 L 3.8125 -14.992188 L 1.160156 -14.992188 L 1.160156 -2.417969 C 1.160156 -0.707031 2.082031 0 3.714844 0 Z M 5.421875 0 "/></g></g></g><g fill="#ffde59" fill-opacity="1"><g transform="translate(111.286144, 271.842526)"><g><path d="M 6.839844 0 L 6.839844 -2.199219 L 5.640625 -2.199219 C 4.816406 -2.199219 4.734375 -2.652344 4.734375 -3.222656 L 4.734375 -8.902344 L 6.859375 -8.902344 L 6.859375 -11.023438 L 4.734375 -11.023438 L 4.734375 -14.992188 L 2.082031 -14.992188 L 2.082031 -11.023438 L 0.453125 -11.023438 L 0.453125 -8.902344 L 2.082031 -8.902344 L 2.082031 -2.417969 C 2.082031 -0.707031 3.027344 0 4.65625 0 Z M 6.839844 0 "/></g></g></g><g fill="#ffde59" fill-opacity="1"><g transform="translate(118.811087, 271.842526)"><g><path d="M 3.871094 0 L 3.871094 -5.621094 C 3.871094 -7.074219 4.046875 -7.878906 4.5 -8.410156 C 4.855469 -8.84375 5.421875 -9.078125 6.191406 -9.078125 C 6.820312 -9.078125 7.269531 -8.921875 7.585938 -8.585938 C 7.957031 -8.175781 8.117188 -7.507812 8.117188 -6.386719 L 8.117188 0 L 10.769531 0 L 10.769531 -6.347656 C 10.769531 -7.449219 10.769531 -8.449219 10.296875 -9.414062 C 9.824219 -10.433594 8.863281 -11.261719 6.859375 -11.261719 C 5.679688 -11.261719 4.753906 -10.867188 3.871094 -9.628906 L 3.871094 -14.992188 L 1.21875 -14.992188 L 1.21875 0 Z M 3.871094 0 "/></g></g></g><g fill="#ffde59" fill-opacity="1"><g transform="translate(130.699014, 271.842526)"><g/></g></g><g fill="#ffde59" fill-opacity="1"><g transform="translate(135.964502, 271.842526)"><g/></g></g><g fill="#ffffff" fill-opacity="1"><g transform="translate(141.233042, 271.842526)"><g><path d="M 7.289062 0.273438 C 10.828125 0.273438 12.890625 -1.511719 12.890625 -4.34375 C 12.890625 -7.742188 9.921875 -8.410156 7.429688 -8.960938 C 5.601562 -9.375 3.988281 -9.726562 3.988281 -11.101562 C 3.988281 -12.242188 5.011719 -12.851562 6.425781 -12.851562 C 7.957031 -12.851562 9.234375 -12.125 9.609375 -10.53125 L 12.5 -10.53125 C 12.027344 -13.773438 9.375 -15.269531 6.484375 -15.269531 C 3.457031 -15.269531 1.179688 -13.753906 1.179688 -10.867188 C 1.179688 -7.703125 3.96875 -7.09375 6.425781 -6.542969 C 8.332031 -6.132812 10.042969 -5.757812 10.042969 -4.207031 C 10.042969 -2.769531 8.863281 -2.140625 7.308594 -2.140625 C 5.738281 -2.140625 4.105469 -2.730469 3.617188 -4.875 L 0.6875 -4.875 C 1.0625 -1.003906 4.402344 0.273438 7.289062 0.273438 Z M 7.289062 0.273438 "/></g></g></g><g fill="#ffffff" fill-opacity="1"><g transform="translate(154.9076, 271.842526)"><g><path d="M 4.382812 0.214844 C 5.324219 0.214844 6.191406 0.0585938 6.878906 -0.394531 C 7.289062 -0.648438 7.605469 -1.003906 7.878906 -1.492188 L 7.878906 0 L 10.53125 0 L 10.53125 -5.738281 C 10.53125 -7.269531 10.53125 -9 9.234375 -10.140625 C 8.410156 -10.90625 7.171875 -11.261719 5.894531 -11.261719 C 3.714844 -11.261719 1.570312 -10.082031 1.179688 -7.507812 L 3.8125 -7.507812 C 4.007812 -8.546875 4.875 -9.175781 5.875 -9.175781 C 6.503906 -9.175781 7.015625 -9 7.347656 -8.644531 C 7.683594 -8.292969 7.859375 -7.761719 7.878906 -7.09375 L 4.597656 -6.484375 C 3.675781 -6.308594 2.730469 -6.03125 2.023438 -5.542969 C 1.257812 -5.011719 0.765625 -4.207031 0.765625 -3.027344 C 0.765625 -0.921875 2.300781 0.214844 4.382812 0.214844 Z M 5.03125 -1.867188 C 4.105469 -1.867188 3.417969 -2.300781 3.417969 -3.125 C 3.417969 -3.496094 3.558594 -3.773438 3.773438 -3.988281 C 4.085938 -4.285156 4.539062 -4.480469 5.304688 -4.617188 L 7.9375 -5.148438 C 7.898438 -3.695312 7.605469 -2.75 6.445312 -2.179688 C 6.011719 -1.964844 5.523438 -1.867188 5.03125 -1.867188 Z M 5.03125 -1.867188 "/></g></g></g><g fill="#ffffff" fill-opacity="1"><g transform="translate(166.519191, 271.842526)"><g><path d="M 4.792969 0 L 4.792969 -8.902344 L 6.820312 -8.902344 L 6.820312 -11.023438 L 4.792969 -11.023438 L 4.792969 -11.769531 C 4.792969 -12.597656 5.226562 -12.890625 5.796875 -12.890625 L 6.820312 -12.890625 L 6.820312 -14.992188 L 5.167969 -14.992188 C 3.183594 -14.992188 2.121094 -13.972656 2.121094 -12.144531 L 2.121094 -11.023438 L 0.453125 -11.023438 L 0.453125 -8.902344 L 2.121094 -8.902344 L 2.121094 0 Z M 4.792969 0 "/></g></g></g><g fill="#ffffff" fill-opacity="1"><g transform="translate(173.749421, 271.842526)"><g><path d="M 6.367188 0.214844 C 9.316406 0.214844 11.003906 -1.570312 11.652344 -3.714844 L 8.941406 -3.714844 C 8.585938 -2.808594 7.722656 -2.0625 6.464844 -2.0625 C 5.324219 -2.0625 4.421875 -2.652344 3.910156 -3.675781 C 3.714844 -4.007812 3.539062 -4.5 3.496094 -4.972656 L 11.828125 -4.972656 L 11.828125 -5.542969 C 11.828125 -9.53125 9.136719 -11.261719 6.289062 -11.261719 C 2.515625 -11.261719 0.746094 -8.332031 0.746094 -5.441406 C 0.746094 -2.179688 2.988281 0.214844 6.367188 0.214844 Z M 3.617188 -6.957031 C 3.65625 -7.25 3.753906 -7.625 4.046875 -7.976562 C 4.558594 -8.765625 5.382812 -9.15625 6.367188 -9.15625 C 7.328125 -9.15625 8.195312 -8.765625 8.707031 -7.976562 C 8.980469 -7.644531 9.078125 -7.25 9.117188 -6.957031 Z M 3.617188 -6.957031 "/></g></g></g><g fill="#ffffff" fill-opacity="1"><g transform="translate(186.32373, 271.842526)"><g><path d="M 6.839844 0 L 6.839844 -2.199219 L 5.640625 -2.199219 C 4.816406 -2.199219 4.734375 -2.652344 4.734375 -3.222656 L 4.734375 -8.902344 L 6.859375 -8.902344 L 6.859375 -11.023438 L 4.734375 -11.023438 L 4.734375 -14.992188 L 2.082031 -14.992188 L 2.082031 -11.023438 L 0.453125 -11.023438 L 0.453125 -8.902344 L 2.082031 -8.902344 L 2.082031 -2.417969 C 2.082031 -0.707031 3.027344 0 4.65625 0 Z M 6.839844 0 "/></g></g></g><g fill="#ffffff" fill-opacity="1"><g transform="translate(193.848672, 271.842526)"><g><path d="M 3.203125 3.96875 C 5.011719 3.96875 5.855469 3.261719 6.542969 1.296875 L 10.828125 -11.023438 L 7.976562 -11.023438 L 5.660156 -2.929688 L 3.085938 -11.023438 L 0.214844 -11.023438 L 4.285156 0.0390625 L 3.988281 0.824219 C 3.675781 1.652344 3.261719 1.730469 2.574219 1.730469 L 1.375 1.730469 L 1.375 3.96875 Z M 3.203125 3.96875 "/></g></g></g><g fill="#ffffff" fill-opacity="1"><g transform="translate(204.949429, 271.842526)"><g/></g></g><g fill="#01aedd" fill-opacity="1"><g transform="translate(210.222955, 271.842526)"><g><path d="M 11.339844 0 L 11.339844 -2.535156 L 4.167969 -2.535156 L 4.167969 -6.25 L 10.59375 -6.25 L 10.59375 -8.765625 L 4.167969 -8.765625 L 4.167969 -12.457031 L 11.339844 -12.457031 L 11.339844 -14.992188 L 1.335938 -14.992188 L 1.335938 0 Z M 11.339844 0 "/></g></g></g><g fill="#01aedd" fill-opacity="1"><g transform="translate(222.423961, 271.842526)"><g><path d="M 3.28125 0 L 5.699219 -3.753906 L 8.136719 0 L 11.199219 0 L 7.347656 -5.5625 L 11.222656 -11.023438 L 8.136719 -11.023438 L 5.679688 -7.328125 L 3.28125 -11.023438 L 0.234375 -11.023438 L 4.027344 -5.5625 L 0.253906 0 Z M 3.28125 0 "/></g></g></g><g fill="#01aedd" fill-opacity="1"><g transform="translate(233.858726, 271.842526)"><g><path d="M 6.367188 0.214844 C 9.316406 0.214844 11.003906 -1.570312 11.652344 -3.714844 L 8.941406 -3.714844 C 8.585938 -2.808594 7.722656 -2.0625 6.464844 -2.0625 C 5.324219 -2.0625 4.421875 -2.652344 3.910156 -3.675781 C 3.714844 -4.007812 3.539062 -4.5 3.496094 -4.972656 L 11.828125 -4.972656 L 11.828125 -5.542969 C 11.828125 -9.53125 9.136719 -11.261719 6.289062 -11.261719 C 2.515625 -11.261719 0.746094 -8.332031 0.746094 -5.441406 C 0.746094 -2.179688 2.988281 0.214844 6.367188 0.214844 Z M 3.617188 -6.957031 C 3.65625 -7.25 3.753906 -7.625 4.046875 -7.976562 C 4.558594 -8.765625 5.382812 -9.15625 6.367188 -9.15625 C 7.328125 -9.15625 8.195312 -8.765625 8.707031 -7.976562 C 8.980469 -7.644531 9.078125 -7.25 9.117188 -6.957031 Z M 3.617188 -6.957031 "/></g></g></g><g fill="#01aedd" fill-opacity="1"><g transform="translate(246.433035, 271.842526)"><g><path d="M 6.347656 0.214844 C 8.980469 0.214844 11.042969 -1.238281 11.554688 -3.714844 L 8.6875 -3.714844 C 8.410156 -2.613281 7.625 -1.945312 6.347656 -1.945312 C 4.636719 -1.945312 3.457031 -3.378906 3.457031 -5.582031 C 3.457031 -7.703125 4.636719 -9.097656 6.347656 -9.097656 C 7.488281 -9.097656 8.292969 -8.527344 8.625 -7.507812 L 11.515625 -7.507812 C 10.964844 -9.785156 9 -11.261719 6.347656 -11.261719 C 3.007812 -11.261719 0.746094 -8.921875 0.746094 -5.582031 C 0.746094 -2.121094 3.027344 0.214844 6.347656 0.214844 Z M 6.347656 0.214844 "/></g></g></g><g fill="#01aedd" fill-opacity="1"><g transform="translate(258.63404, 271.842526)"><g><path d="M 5.050781 0.214844 C 6.347656 0.214844 7.230469 -0.253906 8.039062 -1.394531 L 8.039062 0 L 10.691406 0 L 10.691406 -11.023438 L 8.039062 -11.023438 L 8.039062 -5.421875 C 8.039062 -3.96875 7.859375 -3.164062 7.410156 -2.632812 C 7.035156 -2.179688 6.484375 -1.964844 5.71875 -1.964844 C 5.089844 -1.964844 4.636719 -2.121094 4.324219 -2.457031 C 3.949219 -2.867188 3.792969 -3.515625 3.792969 -4.65625 L 3.792969 -11.023438 L 1.140625 -11.023438 L 1.140625 -4.675781 C 1.140625 -3.085938 1.257812 -2.339844 1.613281 -1.613281 C 2.199219 -0.394531 3.339844 0.214844 5.050781 0.214844 Z M 5.050781 0.214844 "/></g></g></g><g fill="#01aedd" fill-opacity="1"><g transform="translate(270.540343, 271.842526)"><g><path d="M 6.839844 0 L 6.839844 -2.199219 L 5.640625 -2.199219 C 4.816406 -2.199219 4.734375 -2.652344 4.734375 -3.222656 L 4.734375 -8.902344 L 6.859375 -8.902344 L 6.859375 -11.023438 L 4.734375 -11.023438 L 4.734375 -14.992188 L 2.082031 -14.992188 L 2.082031 -11.023438 L 0.453125 -11.023438 L 0.453125 -8.902344 L 2.082031 -8.902344 L 2.082031 -2.417969 C 2.082031 -0.707031 3.027344 0 4.65625 0 Z M 6.839844 0 "/></g></g></g><g fill="#01aedd" fill-opacity="1"><g transform="translate(278.065285, 271.842526)"><g><path d="M 2.535156 -12.242188 C 3.417969 -12.242188 4.167969 -12.832031 4.167969 -13.753906 C 4.167969 -14.640625 3.417969 -15.269531 2.535156 -15.269531 C 1.632812 -15.269531 0.902344 -14.640625 0.902344 -13.753906 C 0.902344 -12.832031 1.632812 -12.242188 2.535156 -12.242188 Z M 3.851562 0 L 3.851562 -11.023438 L 1.199219 -11.023438 L 1.199219 0 Z M 3.851562 0 "/></g></g></g><g fill="#01aedd" fill-opacity="1"><g transform="translate(283.134305, 271.842526)"><g><path d="M 6.40625 0 L 10.492188 -11.023438 L 7.664062 -11.023438 L 5.34375 -4.066406 L 3.066406 -11.023438 L 0.234375 -11.023438 L 4.304688 0 Z M 6.40625 0 "/></g></g></g><g fill="#01aedd" fill-opacity="1"><g transform="translate(293.861758, 271.842526)"><g><path d="M 6.367188 0.214844 C 9.316406 0.214844 11.003906 -1.570312 11.652344 -3.714844 L 8.941406 -3.714844 C 8.585938 -2.808594 7.722656 -2.0625 6.464844 -2.0625 C 5.324219 -2.0625 4.421875 -2.652344 3.910156 -3.675781 C 3.714844 -4.007812 3.539062 -4.5 3.496094 -4.972656 L 11.828125 -4.972656 L 11.828125 -5.542969 C 11.828125 -9.53125 9.136719 -11.261719 6.289062 -11.261719 C 2.515625 -11.261719 0.746094 -8.332031 0.746094 -5.441406 C 0.746094 -2.179688 2.988281 0.214844 6.367188 0.214844 Z M 3.617188 -6.957031 C 3.65625 -7.25 3.753906 -7.625 4.046875 -7.976562 C 4.558594 -8.765625 5.382812 -9.15625 6.367188 -9.15625 C 7.328125 -9.15625 8.195312 -8.765625 8.707031 -7.976562 C 8.980469 -7.644531 9.078125 -7.25 9.117188 -6.957031 Z M 3.617188 -6.957031 "/></g></g></g><g fill="#ffde59" fill-opacity="1"><g transform="translate(131.712061, 310.819562)"><g><path d="M 6.5625 0 C 7.296875 0 8.960938 -0.101562 10.109375 -1.027344 C 10.777344 -1.59375 11.273438 -2.554688 11.273438 -3.804688 C 11.273438 -5.484375 10.347656 -6.597656 8.667969 -6.871094 C 9.902344 -7.195312 10.605469 -8.308594 10.605469 -9.800781 C 10.605469 -10.726562 10.347656 -11.460938 9.800781 -12.011719 C 9.097656 -12.710938 7.949219 -13.074219 6.339844 -13.074219 L 1.164062 -13.074219 L 1.164062 0 Z M 3.632812 -10.863281 L 5.789062 -10.863281 C 6.699219 -10.863281 7.28125 -10.726562 7.660156 -10.398438 C 7.964844 -10.160156 8.121094 -9.78125 8.121094 -9.269531 C 8.121094 -8.207031 7.4375 -7.640625 6.183594 -7.640625 L 3.632812 -7.640625 Z M 3.632812 -5.636719 L 6.527344 -5.636719 C 7.554688 -5.636719 8.789062 -5.515625 8.789062 -3.992188 C 8.789062 -3.375 8.617188 -2.980469 8.308594 -2.722656 C 7.777344 -2.261719 6.921875 -2.210938 6.253906 -2.210938 L 3.632812 -2.210938 Z M 3.632812 -5.636719 "/></g></g></g><g fill="#ffde59" fill-opacity="1"><g transform="translate(143.668511, 310.819562)"><g><path d="M 2.707031 0 L 3.582031 -2.691406 L 8.566406 -2.691406 L 9.457031 0 L 12.042969 0 L 7.4375 -13.074219 L 4.730469 -13.074219 L 0.121094 0 Z M 6.082031 -10.382812 L 7.882812 -4.847656 L 4.28125 -4.847656 Z M 6.082031 -10.382812 "/></g></g></g><g fill="#ffde59" fill-opacity="1"><g transform="translate(155.83052, 310.819562)"><g><path d="M 7.007812 0.238281 C 10.226562 0.238281 12.199219 -1.542969 12.558594 -4.25 L 9.867188 -4.25 C 9.613281 -2.707031 8.480469 -1.96875 6.9375 -1.96875 C 4.539062 -1.96875 3.238281 -3.820312 3.238281 -6.542969 C 3.238281 -9.25 4.539062 -11.101562 6.9375 -11.101562 C 8.480469 -11.101562 9.628906 -10.367188 9.867188 -8.976562 L 12.558594 -8.976562 C 12.199219 -11.546875 10.226562 -13.3125 7.007812 -13.3125 C 2.671875 -13.3125 0.667969 -10.160156 0.667969 -6.542969 C 0.667969 -2.929688 2.671875 0.238281 7.007812 0.238281 Z M 7.007812 0.238281 "/></g></g></g><g fill="#ffde59" fill-opacity="1"><g transform="translate(168.968917, 310.819562)"><g><path d="M 3.632812 0 L 3.632812 -6.066406 L 8.359375 0 L 11.425781 0 L 6.046875 -6.765625 L 11.257812 -13.074219 L 8.242188 -13.074219 L 3.632812 -7.265625 L 3.632812 -13.074219 L 1.164062 -13.074219 L 1.164062 0 Z M 3.632812 0 "/></g></g></g><g fill="#ffde59" fill-opacity="1"><g transform="translate(180.445743, 310.819562)"><g><path d="M 6.304688 0.238281 C 10.039062 0.238281 11.582031 -1.78125 11.582031 -4.746094 L 11.582031 -13.074219 L 9.097656 -13.074219 L 9.097656 -4.746094 C 9.097656 -3.117188 8.414062 -1.96875 6.304688 -1.96875 C 4.199219 -1.96875 3.511719 -3.117188 3.511719 -4.746094 L 3.511719 -13.074219 L 1.027344 -13.074219 L 1.027344 -4.746094 C 1.027344 -1.78125 2.554688 0.238281 6.304688 0.238281 Z M 6.304688 0.238281 "/></g></g></g><g fill="#ffde59" fill-opacity="1"><g transform="translate(193.07025, 310.819562)"><g><path d="M 3.632812 0 L 3.632812 -5.226562 L 6.800781 -5.226562 C 9.25 -5.226562 10.949219 -6.699219 10.949219 -9.21875 C 10.949219 -11.925781 9.25 -13.074219 6.800781 -13.074219 L 1.164062 -13.074219 L 1.164062 0 Z M 3.632812 -10.863281 L 6.460938 -10.863281 C 7.761719 -10.863281 8.496094 -10.246094 8.496094 -9.132812 C 8.496094 -7.984375 7.777344 -7.382812 6.460938 -7.382812 L 3.632812 -7.382812 Z M 3.632812 -10.863281 "/></g></g></g></svg>